# xmcd
#
# Track frame offsets:
#	150
#	15237
#	27930
#	42354
#	53796
#	66800
#	78757
#	93325
#	104036
#	116657
#	133371
#	146503
#
# Disc length: 2105 seconds
#
# Revision: 0
# Processed by: cddbd v1.5.2PL0 Copyright (c) Steve Scherf et al.
# Submitted via: audiograbber 1.83.01
#
DISCID=9f08370c
DTITLE=paquita - vol2
DYEAR=1900
DGENRE=karaoke
TTITLE0=hombres malvados
TTITLE1=taco placero
TTITLE2=arrastrate
TTITLE3=pobre pistolita
TTITLE4=la huerfanita
TTITLE5=ni un cigarro
TTITLE6=al cuarto vaso
TTITLE7=carta abierta
TTITLE8=dos almas
TTITLE9=mi segunda casa
TTITLE10=macho y senor
TTITLE11=mi ultimo refugio
EXTD=
EXTT0=
EXTT1=
EXTT2=
EXTT3=
EXTT4=
EXTT5=
EXTT6=
EXTT7=
EXTT8=
EXTT9=
EXTT10=
EXTT11=
PLAYORDER=
